#!OML:ASF F:\VICON\USERDATA\INSTALL\rory3\rory3.ASF
:FULLY-SPECIFIED
:DEGREES
45
root 0.49600420675190515 18.09509816050138 12.114846545665293 -3.8304349865153755 -1.946307006022553 -6.839157070487101
lfemur -27.19535144496554 4.532194525076099 -12.143646351767433
ltibia 69.87680559131583
lfoot -6.701502497591319 -2.483004862001397
ltoes -7.94082847265423
rfemur -4.388296394996816 6.557725996254561 34.58097243477819
rtibia 27.232752383770347
rfoot -18.453175504254624 -8.410885787918279
rtoes 11.026410854045771
lowerback 10.926143724887147 0.8895273263457906 4.853559651376002
upperback 0.4728383811705465 1.9243899823181763 2.558378486956168
thorax -5.563428568509069 0.8529458028401578 -0.5287323101925255
lowerneck -15.992041428853229 -3.080997601102349 -1.47889286749206
upperneck 20.938636116180156 -4.016606346049351 0.4660981522715051
head 9.251917061280357 -1.9437494348178495 -0.11326447833192432
lclavicle -1.2845577724616203e-15 -1.0606073085501255e-15
lhumerus -33.613508582828295 1.3251478748022634 83.02397488001978
lradius 24.82719328223203
lwrist 5.389216333033783
lhand -29.324938670893694 21.500765748975844
lfingers 7.125020000000056
lthumb -2.665078749532379 51.477616583525986
rclavicle -1.2845577724616203e-15 -1.0606073085501255e-15
rhumerus -26.672760166509438 -15.82963187835702 -80.53019273032962
rradius 24.999702766032428
rwrist 2.1454269954709533
rhand -17.335353241360426 29.743583832816054
rfingers 7.125020000000056
rthumb 8.912169304742054 -8.445887272248331
46
root 0.4983473667045868 18.032086369158982 12.849219662157367 -3.1302643305872846 -2.6714039649940666 -7.424019612092971
lfemur -29.61127951524894 3.525179462512784 -11.391033545736407
ltibia 60.113784194049316
lfoot -7.779313670012796 0.9876860213295613
ltoes -6.647865104622923
rfemur -1.717173871663121 6.845232252514548 35.35157420548974
rtibia 25.87613819929446
rfoot -20.394140868146938 -8.986241780002517
rtoes 10.524762622341687
lowerback 10.892314595731976 1.2501336599802544 5.75710030954154
upperback 0.43373140776805946 2.509861869072043 2.4788584803648694
thorax -5.527512912406191 1.1147721750223067 -1.2133358308541933
lowerneck -16.27308824709446 -3.086825555960618 -1.4170939952987127
upperneck 20.502499391802736 -4.0268271421762 0.460323819915742
head 9.152866592875828 -1.9445249385522039 -0.12723260193407326
lclavicle -1.2691672488183554e-15 -1.048690400778935e-15
lhumerus -34.61789192738265 2.019796864303631 82.99703291995687
lradius 24.69696931732024
lwrist 5.737337700082314
lhand -29.51573186500918 21.02716087919233
lfingers 7.125020000000056
lthumb -2.849350323345827 51.00162113040302
rclavicle -1.2691672488183554e-15 -1.048690400778935e-15
rhumerus -24.475468183806466 -12.95261579255911 -81.55608636761524
rradius 27.199202164881008
rwrist -0.01391567173772934
rhand -17.49548229703372 29.83951127443045
rfingers 7.125020000000056
rthumb 8.757569864178889 -7.993337319171659
47
root 0.5026946128644577 17.95878072358625 13.473629821286075 -2.291655950033744 -3.2925049866451848 -7.98942147573093
lfemur -30.87950627117217 1.4607205179237985 -10.249332572696332
ltibia 47.61458657245363
lfoot -8.058349221033918 4.346184233646501
ltoes -5.617091025161205
rfemur 1.1353440484984372 7.049915318811928 35.96502570475158
rtibia 23.657820522722066
rfoot -22.302369218776807 -9.573845678918026
rtoes 9.346076204154631
lowerback 10.710457934540619 1.5676187042704508 6.5087008048057
upperback 0.38058330736611373 3.0107694780465457 2.433112726554344
thorax -5.433428770849171 1.3411246734781943 -1.7718068064469845
lowerneck -16.651388673719026 -3.097114821689429 -1.3539237106485502
upperneck 20.021065808588716 -4.04499482085725 0.4581038395418706
head 9.057955277973791 -1.9473138162410728 -0.14175808979933358
lclavicle -1.3334013660303343e-15 -1.0984271060589843e-15
lhumerus -35.50474101588482 2.742769470100259 82.9104121028872
lradius 24.124502623750722
lwrist 5.7018519810924
lhand -29.68544639326472 20.642656643301784
lfingers 7.125020000000056
lthumb -3.013256372228492 50.61552157534151
rclavicle -1.3334013660303343e-15 -1.0984271060589843e-15
rhumerus -22.403224819571008 -10.659738076538462 -82.2563941155768
rradius 28.933694795524353
rwrist -1.782812297307931
rhand -17.61289097620329 30.056067230086352
rfingers 7.125020000000056
rthumb 8.644168271039915 -7.291030776869866
48
root 0.5137989359269912 17.88360347286862 14.13713598439696 -1.4242506769345744 -3.832347703285197 -8.432190174252161
lfemur -30.889212586846035 -1.3028346006675948 -8.908170834699478
ltibia 34.030204244344176
lfoot -8.04753498107872 7.22193790898477
ltoes -5.256071664195241
rfemur 4.139585549521021 7.1977266449879735 36.43666120832138
rtibia 21.268083529582686
rfoot -24.023740233450482 -9.901438185193385
rtoes 7.037929058041171
lowerback 10.389843324711 1.8526269189633071 7.065711388966254
upperback 0.3145605601760229 3.4353233489772133 2.4052534668031864
thorax -5.278427574809527 1.5376331437436574 -2.1679079451302252
lowerneck -17.007191134522742 -3.110215009300604 -1.2985425726203026
upperneck 19.649615452941582 -4.07087730850105 0.47947790241345833
head 8.998196091939443 -1.9525169432236764 -0.14858252266807925
lclavicle -1.3321513644379768e-15 -1.0974592703851468e-15
lhumerus -36.215130698171635 3.728720322682184 82.71373392990422
lradius 23.293606837763626
lwrist 5.481391658137964
lhand -29.753418994914917 20.54867383404981
lfingers 7.125020000000056
lthumb -3.078895327430037 50.52127121271108
rclavicle -1.3321513644379768e-15 -1.0974592703851468e-15
rhumerus -20.537136453952463 -9.058371355939396 -82.60833871112895
rradius 30.28888881466801
rwrist -2.905974117650228
rhand -17.68514053330693 30.231622557721238
rfingers 7.125020000000056
rthumb 8.57435984411787 -6.610374174903729
49
root 0.5260882159481306 17.804790217404136 14.650558240220041 -0.7079801556017331 -4.279132682514062 -8.680741441460658
lfemur -30.169976825399633 -4.012871116025377 -7.88120056031474
ltibia 21.714196269286752
lfoot -8.048844481572255 9.023785050858027
ltoes -5.593959323150045
rfemur 7.063029446677058 7.280936772501759 36.60235032981731
rtibia 19.261230684653718
rfoot -25.4211499906656 -9.718116884332694
rtoes 3.439249141996186
lowerback 9.985762498250166 2.085736393035442 7.334289901820484
upperback 0.24943660286060437 3.7509061236166645 2.357593965222634
thorax -5.10464614016353 1.6896899647598294 -2.41487108203042
lowerneck -17.29788374510154 -3.1393350495124572 -1.2559602184183138
upperneck 19.395084808446388 -4.1260257260773265 0.5146647170572132
head 8.967408892843277 -1.9691917778615537 -0.15108058214976383
lclavicle -1.4284040782300625e-15 -1.1719880443467789e-15
lhumerus -36.89558864734497 4.925317572251942 82.34263172175822
lradius 21.97529072144424
lwrist 4.911023331540971
lhand -29.722245940391936 20.662322589040784
lfingers 7.125020000000055
lthumb -3.04878523426172 50.635302213208256
rclavicle -1.4284040782300625e-15 -1.1719880443467789e-15
rhumerus -19.133430062386076 -8.372749323407222 -82.77874712827214
rradius 31.05310077835313
rwrist -3.4881704838697676
rhand -17.768770560842654 30.24546902264633
rfingers 7.125020000000055
rthumb 8.493630570969014 -6.191740071267434
50
root 0.5373128415534612 17.730285378845302 15.230501668608262 -0.29591211705472353 -4.534236344145349 -8.621166223638843
lfemur -29.129082281769662 -5.814031115736672 -7.700710223478303
ltibia 13.326987597649595
lfoot -7.6539787668295265 9.089145154262031
ltoes -6.143664924183392
rfemur 9.672237670897138 7.270979060502254 36.348486284606665
rtibia 18.691691059065764
rfoot -25.913738698955363 -8.898050181550614
rtoes -1.0794092968038926
lowerback 9.608619864931962 2.2408310036326187 7.287119486445867
upperback 0.19926077800136904 3.925641577752537 2.263694448320649
thorax -4.950715586574015 1.7806708506828048 -2.505883497910252
lowerneck -17.450824745948864 -3.19390241771873 -1.2455320485185006
upperneck 19.28230258142676 -4.218919754952122 0.5785581633449257
head 8.961315158359387 -2.003244977066996 -0.1417434477963221
lclavicle -1.5248510735800323e-15 -1.2466672050289105e-15
lhumerus -37.53541124465334 6.238706658578218 81.82932975051742
lradius 20.591168796424228
lwrist 3.981885380080227
lhand -29.606791633277204 20.82473217247709
lfingers 7.125020000000055
lthumb -2.9372860177141744 50.79849004796669
rclavicle -1.5248510735800323e-15 -1.2466672050289105e-15
rhumerus -18.36196073305276 -8.484477732823873 -82.79830617669643
rradius 31.55203695528371
rwrist -3.6155315019041883
rhand -17.8615921222911 30.159123894938705
rfingers 7.125020000000055
rthumb 8.404084629957932 -5.991380609327247
51
root 0.5507313894982047 17.668198481797983 16.012010810862773 -0.29734381802326415 -4.538543600324756 -8.23263689245262
lfemur -28.259710623835872 -6.325497221597205 -8.548189513090625
ltibia 10.281512671760282
lfoot -6.660633134383341 7.2223049802159105
ltoes -6.4673114881562945
rfemur 11.702093839488478 7.056016259252628 35.59638534789528
rtibia 20.0510940338169
rfoot -24.776659644490067 -7.400307378840642
rtoes -5.459911080330803
lowerback 9.314212895174595 2.3129693473410926 6.944384861425515
upperback 0.16240749970720214 3.9613293417455817 2.108142972544208
thorax -4.8532658739514405 1.8084917701560705 -2.478311268982008
lowerneck -17.452808453369883 -3.2829429854138628 -1.2701495878659175
upperneck 19.289769876189585 -4.358686472378799 0.6563471373817809
head 8.969765678202826 -2.0606494538075557 -0.1258234261162514
lclavicle -1.6483836112761623e-15 -1.3423187609220458e-15
lhumerus -38.15261898405958 7.520085296020273 81.16483801328074
lradius 19.053811489874995
lwrist 2.6467805786369
lhand -29.438185873950566 20.822568453788165
lfingers 7.125020000000055
lthumb -2.7744557924641544 50.79717115699656
rclavicle -1.6483836112761623e-15 -1.3423187609220458e-15
rhumerus -18.35912725934398 -9.350539858552498 -82.6546261350553
rradius 31.66115935763058
rwrist -3.419769144989096
rhand -17.943493155145898 30.080028204460724
rfingers 7.125020000000055
rthumb 8.325089912319042 -5.943311683358528
52
root 0.5819130679955292 17.638182609437038 17.315815316697876 -0.6604500570147442 -4.238957302711057 -7.468857693521015
lfemur -27.33332981387612 -5.770959738534861 -10.17818576065561
ltibia 12.414146855734735
lfoot -4.943200276062212 4.0038120993072335
ltoes -6.074873521428664
rfemur 13.140603695826732 6.57837690470896 34.38699726409071
rtibia 24.208051270715274
rfoot -20.790433999153908 -5.2095338462755425
rtoes -8.179879641053448
lowerback 9.151410432708932 2.342044661408575 6.418514802474408
upperback 0.1390278595074988 3.9248542212651056 1.9043591506817736
thorax -4.790238016825507 1.8016957009127066 -2.3242194595152723
lowerneck -17.255505597743678 -3.3855448005222217 -1.3151172134843565
upperneck 19.5098488058161 -4.514857836230791 0.7810624033641367
head 9.01598842099848 -2.1284942895156744 -0.09314744381388368
lclavicle -1.4218565393720096e-15 -1.1669181823220813e-15
lhumerus -38.484465079672844 8.921038225674504 80.46986420700692
lradius 18.07548273818032
lwrist 1.372892012399003
lhand -29.056251609792096 20.867748122421986
lfingers 7.125020000000055
lthumb -2.405605140705927 50.84244291368876
rclavicle -1.4218565393720096e-15 -1.1669181823220813e-15
rhumerus -18.940447092299035 -10.617158197857414 -82.11040675341879
rradius 32.01565579977493
rwrist -2.739974489601333
rhand -17.95564855779363 30.206355199694144
rfingers 7.125020000000055
rthumb 8.313388021252717 -5.885138626680609
